<?xml version="1.0" encoding="UTF-8" standalone="no"?>
<!-- Created with Inkscape (http://www.inkscape.org/) -->

<svg
   xmlns:dc="http://purl.org/dc/elements/1.1/"
   xmlns:cc="http://creativecommons.org/ns#"
   xmlns:rdf="http://www.w3.org/1999/02/22-rdf-syntax-ns#"
   xmlns:svg="http://www.w3.org/2000/svg"
   xmlns="http://www.w3.org/2000/svg"
   xmlns:sodipodi="http://sodipodi.sourceforge.net/DTD/sodipodi-0.dtd"
   xmlns:inkscape="http://www.inkscape.org/namespaces/inkscape"
   width="400"
   height="400"
   id="svg2"
   version="1.1"
   inkscape:version="0.91 r13725"
   sodipodi:docname="logo-small.svg"
   inkscape:export-filename="/usr/local/google/home/louquillio/working/webrtc-site/assets/images/webrtc-logo-vert-retro-255x305.png"
   inkscape:export-xdpi="90"
   inkscape:export-ydpi="90">
  <defs
     id="defs4" />
  <sodipodi:namedview
     id="base"
     pagecolor="#ffffff"
     bordercolor="#666666"
     borderopacity="1.0"
     inkscape:pageopacity="0"
     inkscape:pageshadow="2"
     inkscape:zoom="0.9025"
     inkscape:cx="97.533671"
     inkscape:cy="200"
     inkscape:document-units="px"
     inkscape:current-layer="layer1"
     showgrid="false"
     fit-margin-top="5"
     fit-margin-left="5"
     fit-margin-right="5"
     fit-margin-bottom="5"
     inkscape:window-width="1300"
     inkscape:window-height="791"
     inkscape:window-x="1110"
     inkscape:window-y="404"
     inkscape:window-maximized="0" />
  <metadata
     id="metadata7">
    <rdf:RDF>
      <cc:Work
         rdf:about="">
        <dc:format>image/svg+xml</dc:format>
        <dc:type
           rdf:resource="http://purl.org/dc/dcmitype/StillImage" />
        <dc:title></dc:title>
      </cc:Work>
    </rdf:RDF>
  </metadata>
  <g
     inkscape:label="Layer 1"
     inkscape:groupmode="layer"
     id="layer1"
     transform="translate(220.38306,-139.84144)">
    <g
       id="g3502"
       transform="matrix(0.83548336,0,0,0.83548336,-229.31244,-43.758049)"
       style="opacity:0.7">
      <g
         transform="matrix(3.9482691,0,0,-3.9482691,263.23496,518.97915)"
         id="g376"
         style="">
        <path
           inkscape:connector-curvature="0"
           id="path378"
           style="fill:#ff6600;fill-opacity:1;fill-rule:nonzero;stroke:none"
           d="m 0,0 c 0,-7.534 -6.107,-13.642 -13.641,-13.642 -7.535,0 -13.642,6.108 -13.642,13.642 0,7.534 6.107,13.642 13.642,13.642 C -6.107,13.642 0,7.534 0,0" />
      </g>
      <g
         transform="matrix(3.9482691,0,0,-3.9482691,369.76125,443.57273)"
         id="g404"
         style="">
        <path
           inkscape:connector-curvature="0"
           id="path406"
           style="fill:#ffcc00;fill-opacity:1;fill-rule:nonzero;stroke:none"
           d="m 0,0 c 0,-7.533 -6.107,-13.642 -13.641,-13.642 -7.535,0 -13.642,6.109 -13.642,13.642 0,7.534 6.107,13.643 13.642,13.643 C -6.107,13.643 0,7.534 0,0" />
      </g>
      <g
         transform="matrix(3.9482691,0,0,-3.9482691,238.09949,442.37758)"
         id="g408"
         style="">
        <path
           inkscape:connector-curvature="0"
           id="path410"
           style="fill:#0089cc;fill-opacity:1;fill-rule:nonzero;stroke:none"
           d="m 0,0 c 0,-7.533 -6.107,-13.642 -13.642,-13.642 -7.533,0 -13.641,6.109 -13.641,13.642 0,7.534 6.108,13.643 13.641,13.643 C -6.107,13.643 0,7.534 0,0" />
      </g>
      <g
         transform="matrix(3.9482691,0,0,-3.9482691,345.82485,518.97915)"
         id="g412"
         style="">
        <path
           inkscape:connector-curvature="0"
           id="path414"
           style="fill:#009939;fill-opacity:1;fill-rule:nonzero;stroke:none"
           d="m 0,0 c 0,-7.534 -6.107,-13.642 -13.643,-13.642 -7.533,0 -13.641,6.108 -13.641,13.642 0,7.534 6.108,13.642 13.641,13.642 C -6.107,13.642 0,7.534 0,0" />
      </g>
      <g
         transform="matrix(3.9482691,0,0,-3.9482691,303.93214,394.49692)"
         id="g416"
         style="">
        <path
           inkscape:connector-curvature="0"
           id="path418"
           style="fill:#bf0000;fill-opacity:1;fill-rule:nonzero;stroke:none"
           d="m 0,0 c 0,-7.534 -6.108,-13.642 -13.642,-13.642 -7.534,0 -13.642,6.108 -13.642,13.642 0,7.534 6.108,13.642 13.642,13.642 C -6.108,13.642 0,7.534 0,0" />
      </g>
      <g
         transform="matrix(3.9482691,0,0,-3.9482691,262.03983,443.57273)"
         id="g420"
         style="">
        <path
           inkscape:connector-curvature="0"
           id="path422"
           style="fill:#fc0007;fill-opacity:1;fill-rule:nonzero;stroke:none"
           d="M 0,0 C 0,-0.287 0.025,-0.568 0.043,-0.851 6.094,0.545 10.61,5.955 10.61,12.43 c 0,0.287 -0.025,0.569 -0.043,0.852 C 4.516,11.885 0,6.475 0,0" />
      </g>
      <g
         transform="matrix(3.9482691,0,0,-3.9482691,269.1459,470.24289)"
         id="g424"
         style="">
        <path
           inkscape:connector-curvature="0"
           id="path426"
           style="fill:#1cd306;fill-opacity:1;fill-rule:nonzero;stroke:none"
           d="m 0,0 c 2.351,-4.11 6.769,-6.887 11.843,-6.887 2.068,0 4.021,0.474 5.778,1.298 -2.35,4.11 -6.768,6.887 -11.843,6.887 C 3.71,1.298 1.757,0.824 0,0" />
      </g>
      <g
         transform="matrix(3.9482691,0,0,-3.9482691,238.09949,518.97915)"
         id="g428"
         style="">
        <path
           inkscape:connector-curvature="0"
           id="path430"
           style="fill:#0f7504;fill-opacity:1;fill-rule:nonzero;stroke:none"
           d="M 0,0 C 0,-3.333 1.198,-6.383 3.184,-8.752 5.168,-6.383 6.366,-3.333 6.366,0 6.366,3.333 5.168,6.383 3.184,8.752 1.198,6.383 0,3.333 0,0" />
      </g>
      <g
         transform="matrix(3.9482691,0,0,-3.9482691,162.9126,491.82927)"
         id="g432"
         style="">
        <path
           inkscape:connector-curvature="0"
           id="path434"
           style="fill:#0c5e87;fill-opacity:1;fill-rule:nonzero;stroke:none"
           d="m 0,0 c 1.657,-0.716 3.481,-1.117 5.401,-1.117 5.024,0 9.401,2.723 11.769,6.766 C 15.513,6.365 13.688,6.765 11.769,6.765 6.745,6.765 2.367,4.042 0,0" />
      </g>
      <g
         transform="matrix(3.9482691,0,0,-3.9482691,196.43855,389.95287)"
         id="g436"
         style="">
        <path
           inkscape:connector-curvature="0"
           id="path438"
           style="fill:#6b0001;fill-opacity:1;fill-rule:nonzero;stroke:none"
           d="m 0,0 c -0.032,-0.38 -0.059,-0.762 -0.059,-1.151 0,-6.47 4.509,-11.875 10.553,-13.277 0.031,0.38 0.058,0.762 0.058,1.15 C 10.552,-6.808 6.044,-1.401 0,0" />
      </g>
      <g
         transform="matrix(3.9482691,0,0,-3.9482691,201.46628,512.31444)"
         id="g482"
         style="">
        <path
           inkscape:connector-curvature="0"
           id="path484"
           style="fill:#ffffff;fill-opacity:1;fill-rule:nonzero;stroke:none"
           d="M 0,0 -2.134,0 C -4.018,0 -5.55,1.527 -5.55,3.406 l 0,19.316 c 0,1.879 1.532,3.407 3.416,3.407 l 26.759,0 c 1.884,0 3.415,-1.528 3.415,-3.407 l 0,-19.316 C 28.04,1.527 26.509,0 24.625,0 L 15.509,0 -2.781,-8.966 0,0 Z" />
      </g>
    </g>
  </g>
</svg>
